# xmcd CD database file
#
# Track frame offsets:
#	150
#	30582
#	70684
#	107656
#	136285
#	164250
#	188641
#	228418
#
# Disc length: 3454 seconds
#
# Revision: 0
# Processed by: cddbd v1.5.1PL2 Copyright (c) Steve Scherf et al.
# Submitted via: CDex 1.50
#
DISCID=5f0d7c08
DTITLE=Jessica Williams - For John Coltrane
DYEAR=2004
DGENRE=Jazz
TTITLE0=Prayer and Meditation
TTITLE1=Just Words
TTITLE2=Naima
TTITLE3=Lonnie's Lament
TTITLE4=Freedom Street
TTITLE5=Still Life
TTITLE6=The Vision
TTITLE7=Welcome
EXTD=YEAR: 2004
EXTT0=
EXTT1=
EXTT2=
EXTT3=
EXTT4=
EXTT5=
EXTT6=
EXTT7=
PLAYORDER=
